<svg width="23" height="33" viewBox="0 0 23 33" fill="none" xmlns="http://www.w3.org/2000/svg">
<path d="M11.3333 31.9167C10.9639 31.9167 10.6472 31.8111 10.3833 31.6C10.1194 31.3889 9.92153 31.1118 9.78958 30.7687C9.28819 29.291 8.65486 27.9056 7.88958 26.6125C7.1507 25.3194 6.10833 23.8021 4.7625 22.0604C3.41667 20.3187 2.32153 18.6562 1.47708 17.0729C0.659028 15.4896 0.25 13.5764 0.25 11.3333C0.25 8.24583 1.31875 5.63333 3.45625 3.49583C5.62014 1.33194 8.24583 0.25 11.3333 0.25C14.4208 0.25 17.0333 1.33194 19.1708 3.49583C21.3347 5.63333 22.4167 8.24583 22.4167 11.3333C22.4167 13.7347 21.9549 15.7403 21.0312 17.35C20.134 18.9333 19.0917 20.5035 17.9042 22.0604C16.4792 23.9604 15.3972 25.5437 14.6583 26.8104C13.9458 28.0507 13.3521 29.3701 12.8771 30.7687C12.7451 31.1382 12.534 31.4285 12.2438 31.6396C11.9799 31.8243 11.6764 31.9167 11.3333 31.9167ZM11.3333 26.2562C11.7819 25.359 12.2833 24.475 12.8375 23.6042C13.4181 22.7333 14.2625 21.5722 15.3708 20.1208C16.5056 18.6431 17.4292 17.284 18.1417 16.0437C18.8806 14.7771 19.25 13.2069 19.25 11.3333C19.25 9.14305 18.4715 7.28264 16.9146 5.75208C15.384 4.19514 13.5236 3.41667 11.3333 3.41667C9.14306 3.41667 7.26944 4.19514 5.7125 5.75208C4.18195 7.28264 3.41667 9.14305 3.41667 11.3333C3.41667 13.2069 3.77292 14.7771 4.48542 16.0437C5.22431 17.284 6.16111 18.6431 7.29583 20.1208C8.40417 21.5722 9.23542 22.7333 9.78958 23.6042C10.3701 24.475 10.8847 25.359 11.3333 26.2562ZM11.3333 15.2917C12.4417 15.2917 13.3785 14.909 14.1437 14.1437C14.909 13.3785 15.2917 12.4417 15.2917 11.3333C15.2917 10.225 14.909 9.28819 14.1437 8.52291C13.3785 7.75764 12.4417 7.375 11.3333 7.375C10.225 7.375 9.28819 7.75764 8.52292 8.52291C7.75764 9.28819 7.375 10.225 7.375 11.3333C7.375 12.4417 7.75764 13.3785 8.52292 14.1437C9.28819 14.909 10.225 15.2917 11.3333 15.2917Z" fill="white" stroke="black" stroke-width="0.5"/>
</svg>
